<svg xmlns="http://www.w3.org/2000/svg" xmlns:xlink="http://www.w3.org/1999/xlink" width="500" zoomAndPan="magnify" viewBox="0 0 375 374.999991" height="500" preserveAspectRatio="xMidYMid meet" version="1.0"><defs><clipPath id="2c734b95f0"><path d="M 20.480469 5.839844 L 354.230469 5.839844 L 354.230469 368.839844 L 20.480469 368.839844 Z M 20.480469 5.839844 " clip-rule="nonzero"/></clipPath></defs><g clip-path="url(#2c734b95f0)"><path fill="#ffffff" d="M 354.492188 336.347656 L 354.492188 332.675781 C 354.492188 310.144531 350.074219 288.273438 341.363281 267.671875 C 332.949219 247.785156 320.914062 229.925781 305.582031 214.597656 C 290.253906 199.269531 272.398438 187.230469 252.507812 178.820312 C 251.203125 178.265625 249.886719 177.730469 248.5625 177.210938 C 251.066406 175.164062 253.476562 172.988281 255.78125 170.679688 C 264.644531 161.820312 271.605469 151.492188 276.46875 139.992188 C 281.507812 128.074219 284.066406 115.425781 284.066406 102.398438 C 284.066406 89.375 281.511719 76.726562 276.46875 64.808594 C 271.605469 53.308594 264.644531 42.980469 255.78125 34.121094 C 246.921875 25.257812 236.597656 18.296875 225.09375 13.433594 C 213.179688 8.394531 200.53125 5.839844 187.503906 5.839844 C 174.476562 5.839844 161.828125 8.394531 149.910156 13.433594 C 138.410156 18.296875 128.085938 25.257812 119.222656 34.121094 C 110.359375 42.980469 103.402344 53.308594 98.539062 64.808594 C 93.496094 76.726562 90.941406 89.375 90.941406 102.398438 C 90.941406 115.425781 93.496094 128.074219 98.539062 139.992188 C 103.402344 151.492188 110.363281 161.816406 119.222656 170.679688 C 121.53125 172.988281 123.941406 175.164062 126.445312 177.210938 C 125.121094 177.730469 123.804688 178.265625 122.496094 178.820312 C 102.609375 187.230469 84.75 199.269531 69.421875 214.597656 C 54.09375 229.925781 42.054688 247.785156 33.644531 267.671875 C 24.929688 288.273438 20.511719 310.144531 20.511719 332.675781 L 20.511719 336.347656 C 20.511719 353.488281 33.667969 367.609375 50.410156 369.15625 L 326.867188 368.867188 L 326.964844 368.855469 C 329.839844 368.5625 332.632812 367.707031 335.179688 366.34375 C 346.5625 361.144531 354.492188 349.65625 354.492188 336.347656 Z M 116.332031 132.464844 C 112.304688 122.941406 110.261719 112.828125 110.261719 102.398438 C 110.261719 91.972656 112.304688 81.859375 116.332031 72.335938 C 120.222656 63.136719 125.792969 54.875 132.886719 47.78125 C 139.980469 40.6875 148.238281 35.121094 157.4375 31.230469 C 166.960938 27.203125 177.074219 25.160156 187.503906 25.160156 C 197.929688 25.160156 208.046875 27.203125 217.570312 31.230469 C 226.765625 35.121094 235.027344 40.6875 242.121094 47.78125 C 249.214844 54.875 254.785156 63.136719 258.671875 72.335938 C 262.703125 81.859375 264.742188 91.972656 264.742188 102.398438 C 264.742188 112.828125 262.699219 122.941406 258.671875 132.464844 C 254.78125 141.664062 249.214844 149.921875 242.121094 157.015625 C 235.027344 164.109375 226.765625 169.679688 217.570312 173.570312 C 208.046875 177.597656 197.929688 179.640625 187.503906 179.640625 C 177.074219 179.640625 166.960938 177.597656 157.4375 173.570312 C 148.238281 169.679688 139.980469 164.109375 132.886719 157.015625 C 125.792969 149.921875 120.222656 141.664062 116.332031 132.464844 Z M 335.171875 336.347656 C 335.171875 343.863281 329.054688 349.976562 321.539062 349.976562 L 53.464844 349.976562 C 45.949219 349.976562 39.832031 343.863281 39.832031 336.347656 L 39.832031 332.675781 C 39.832031 312.742188 43.738281 293.40625 51.4375 275.195312 C 58.875 257.613281 69.523438 241.820312 83.085938 228.257812 C 96.644531 214.699219 112.4375 204.050781 130.023438 196.613281 C 133.898438 194.972656 137.878906 193.488281 141.859375 192.191406 C 143.246094 191.742188 144.660156 191.304688 146.054688 190.898438 C 146.574219 190.746094 147.070312 190.550781 147.542969 190.324219 C 148.328125 190.679688 149.113281 191.027344 149.910156 191.363281 C 161.828125 196.40625 174.476562 198.960938 187.503906 198.960938 C 200.527344 198.960938 213.175781 196.40625 225.09375 191.363281 C 225.890625 191.027344 226.675781 190.679688 227.460938 190.324219 C 227.933594 190.550781 228.429688 190.746094 228.949219 190.898438 C 234.359375 192.480469 239.753906 194.402344 244.980469 196.613281 C 262.566406 204.050781 278.359375 214.699219 291.921875 228.257812 C 305.480469 241.820312 316.128906 257.613281 323.566406 275.195312 C 331.265625 293.402344 335.171875 312.742188 335.171875 332.675781 Z M 335.171875 336.347656 " fill-opacity="1" fill-rule="nonzero"/></g></svg>